<?xml version="1.0" encoding="utf-8"?>
<!-- Generator: Adobe Illustrator 16.0.0, SVG Export Plug-In . SVG Version: 6.00 Build 0)  -->
<!DOCTYPE svg PUBLIC "-//W3C//DTD SVG 1.1//EN" "http://www.w3.org/Graphics/SVG/1.1/DTD/svg11.dtd">
<svg version="1.1" id="_x38_3-fruit-icons-Tangerine-clementine-line-art"
	 xmlns="http://www.w3.org/2000/svg" xmlns:xlink="http://www.w3.org/1999/xlink" x="0px" y="0px" width="400px" height="400px"
	 viewBox="-47.5 -34 400 400" enable-background="new -47.5 -34 400 400" xml:space="preserve">
<circle fill="#E34E00" cx="152.5" cy="166" r="200"/>
<g>
	<path fill="#FFFFFF" d="M216.719,128.918c-17.234-9.642-34.879-14.613-73.776-11.418c-1.118-1.646-3.805-5.823-5.623-10.34
		c11.36,0.435,39.718,0.874,59.233-4.397c21.015-5.677,29.242-9.739,49.921-20.651c0.582-0.304,0.916-0.928,0.855-1.579
		c-0.061-0.65-0.51-1.198-1.137-1.387c-38.586-11.718-65.521,3.159-80,11.152c-2.623,1.446-4.888,2.697-6.75,3.54
		c-10.257,4.644-23.041,0.343-26.172-0.849c-6.684-26.65,3.889-39.688,3.999-39.817c0.572-0.68,0.484-1.692-0.194-2.268
		c-0.676-0.576-1.692-0.493-2.268,0.185c-0.492,0.583-11.998,14.575-4.454,43.499c0.127,0.479,0.464,0.873,0.918,1.07
		c0.667,0.288,16.463,7.011,29.502,1.109c1.975-0.894,4.291-2.173,6.976-3.654c14.517-8.018,38.492-21.245,73.666-11.978
		c-18.289,9.603-26.178,13.24-45.702,18.516c-20.641,5.577-51.644,4.613-60.649,4.184c-0.524-0.012-1.036,0.211-1.36,0.63
		c-0.32,0.419-0.416,0.97-0.253,1.471c2.28,7.09,7.185,13.901,7.388,14.188c0.33,0.458,0.87,0.71,1.442,0.661
		c34.181-2.895,53.252-0.032,72.862,10.94c19.539,10.934,32.082,32.819,31.947,55.754c-0.133,22.148-11.773,41.143-31.934,52.105
		c-41.591,22.628-97.645,22.697-130.396,0.161c-20.47-14.079-29.099-32.373-26.38-55.938c2.218-19.209,14.022-52.804,68.183-61.937
		c0.876-0.149,1.468-0.979,1.317-1.855c-0.146-0.876-0.977-1.467-1.855-1.321c-41.677,7.03-66.841,30.021-70.843,64.748
		c-2.828,24.512,6.508,44.34,27.754,58.959c16.844,11.597,39.642,17.387,63.561,17.387c23.905,0,48.921-5.787,70.209-17.366
		c21.223-11.548,33.473-31.57,33.602-54.922C250.449,163.411,237.26,140.417,216.719,128.918z"/>
	<path fill="#FFFFFF" d="M140.285,88.227c0.098,0.016,2.516,0.431,5.883,0.431c3.678,0,8.987-0.513,13.368-2.964
		c1.446-0.81,3.074-1.607,4.802-2.453c7.171-3.51,16.996-8.325,29.141-21.382c14.041-15.105,16.06-18.585,25.779-35.317l2.141-3.68
		c0.35-0.612,0.268-1.388-0.217-1.906c-0.482-0.521-1.248-0.661-1.889-0.349c-44.077,21.535-61.894,43.438-67.502,51.859
		c-7.123,10.688-11.767,12.658-11.792,12.67c-0.684,0.254-1.112,0.934-1.042,1.655C139.021,87.512,139.566,88.1,140.285,88.227z
		 M154.468,74.247c14.95-22.43,46.565-40.634,61.415-48.323c-9.287,15.989-11.258,19.2-24.765,33.74
		c-11.741,12.625-21.255,17.281-28.2,20.685c-1.767,0.864-3.434,1.683-4.959,2.535c-3.774,2.112-8.499,2.553-11.795,2.553
		c-0.35,0-0.69-0.006-1.021-0.012C147.454,83.414,150.637,79.992,154.468,74.247z"/>
</g>
</svg>
